<svg viewBox="0 0 64 64" xmlns="http://www.w3.org/2000/svg" role="img" aria-label="Colas"><rect width="64" height="64" rx="13" fill="#161616"/><svg x="6" y="6" width="52" height="52" viewBox="2150 90 850 795" preserveAspectRatio="xMidYMid meet"><path d="M1468.0 973.5 C1460.3 972.2 1450.1 968.8 1428.0 960.2 L1420.5 957.2 L1424.5 955.6 C1426.7 954.6 1436.2 951.0 1445.5 947.4 C1454.8 943.8 1465.2 939.8 1468.5 938.5 C1471.8 937.2 1480.6 933.8 1488.0 930.9 C1495.4 928.1 1506.5 923.9 1512.5 921.5 C1518.5 919.1 1530.2 914.6 1538.5 911.5 C1570.0 899.4 1589.8 891.7 1598.0 888.5 C1602.7 886.7 1613.2 882.6 1621.5 879.4 C1629.8 876.3 1646.8 869.7 1659.5 864.8 C1672.2 859.9 1690.2 853.0 1699.5 849.4 C1708.8 845.8 1720.3 841.4 1725.0 839.5 C1729.7 837.7 1740.2 833.6 1748.5 830.4 C1756.8 827.3 1768.7 822.7 1775.0 820.2 C1789.8 814.5 1802.0 809.8 1814.5 805.0 C1820.0 802.9 1829.9 799.1 1836.5 796.5 C1843.1 793.9 1853.0 790.1 1858.5 788.0 C1876.3 781.1 1892.3 775.0 1900.0 772.0 C1904.1 770.4 1912.9 767.1 1919.5 764.5 C1926.1 761.9 1936.0 758.1 1941.5 756.0 C1947.0 753.9 1956.9 750.1 1963.5 747.5 C1970.1 745.0 1980.0 741.2 1985.5 739.0 C1994.5 735.6 2039.7 718.2 2062.5 709.4 C2067.4 707.5 2074.2 704.8 2077.5 703.5 C2080.8 702.1 2087.1 699.7 2091.5 698.1 C2095.9 696.5 2110.1 691.0 2123.0 686.0 C2135.9 681.0 2149.9 675.5 2154.0 674.0 C2163.3 670.4 2182.3 663.1 2195.5 658.0 C2201.0 655.9 2210.7 652.2 2217.0 649.7 C2234.5 643.0 2262.4 632.3 2272.5 628.3 C2284.0 623.9 2300.1 617.6 2311.0 613.4 C2315.7 611.6 2323.6 608.6 2328.5 606.7 C2338.1 602.9 2364.1 592.9 2388.5 583.6 C2396.8 580.4 2407.3 576.3 2412.0 574.5 C2424.8 569.5 2443.7 562.2 2471.5 551.5 C2508.3 537.3 2511.7 536.0 2521.0 532.4 C2525.7 530.6 2533.6 527.6 2538.5 525.7 C2543.4 523.7 2555.8 519.0 2565.9 515.1 C2589.3 506.1 2593.9 502.7 2595.5 492.7 C2597.3 482.3 2591.2 474.5 2576.8 468.8 C2566.2 464.7 2522.1 447.5 2508.5 442.3 C2503.6 440.4 2495.7 437.3 2491.0 435.5 C2486.3 433.7 2476.4 429.8 2469.0 427.0 C2461.6 424.2 2451.7 420.3 2447.0 418.5 C2436.8 414.5 2425.8 410.2 2404.5 402.0 C2383.6 394.0 2372.4 389.6 2362.0 385.5 C2357.3 383.7 2343.4 378.3 2331.0 373.5 C2318.6 368.7 2304.7 363.3 2300.0 361.5 C2289.6 357.4 2278.4 353.0 2257.5 345.0 C2236.6 337.0 2225.4 332.6 2215.0 328.5 C2207.6 325.6 2196.0 321.1 2152.5 304.3 C2147.6 302.4 2139.7 299.3 2135.0 297.5 C2130.3 295.7 2120.4 291.8 2113.0 289.0 C2097.9 283.2 2080.8 276.6 2068.0 271.5 C2060.6 268.6 2049.4 264.3 2005.5 247.3 C2000.5 245.4 1992.7 242.3 1988.0 240.5 C1983.3 238.7 1973.4 234.8 1966.0 232.0 C1958.6 229.2 1948.7 225.3 1944.0 223.5 C1932.9 219.1 1922.7 215.2 1892.5 203.5 C1878.8 198.2 1863.7 192.4 1859.0 190.5 C1854.3 188.7 1840.4 183.3 1828.0 178.5 C1815.6 173.7 1801.7 168.3 1797.0 166.5 C1786.6 162.4 1775.4 158.0 1754.5 150.0 C1733.6 142.0 1722.4 137.6 1712.0 133.5 C1704.6 130.6 1693.0 126.1 1649.5 109.3 C1644.5 107.4 1636.7 104.3 1632.0 102.5 C1627.3 100.7 1616.3 96.4 1607.5 93.0 C1586.1 84.7 1575.2 80.5 1565.0 76.5 C1555.6 72.8 1545.3 68.8 1525.0 61.0 C1503.0 52.5 1494.0 49.0 1485.0 45.5 C1471.8 40.3 1440.6 28.3 1429.3 24.0 C1423.6 21.9 1418.2 19.7 1417.3 19.1 C1415.6 18.2 1415.6 18.1 1417.5 17.4 C1418.6 17.0 1424.5 14.8 1430.5 12.5 C1453.1 3.7 1459.3 2.2 1476.0 1.4 C1500.0 0.2 1507.2 1.9 1552.0 19.5 C1556.7 21.3 1566.6 25.2 1574.0 28.0 C1581.4 30.8 1591.3 34.7 1596.0 36.5 C1605.1 40.1 1608.8 41.5 1647.5 56.5 C1677.6 68.2 1683.1 70.3 1712.0 81.5 C1724.4 86.3 1738.3 91.7 1743.0 93.5 C1753.4 97.6 1764.6 102.0 1785.5 110.0 C1806.4 118.0 1817.6 122.4 1828.0 126.5 C1835.4 129.4 1847.0 133.9 1890.5 150.7 C1895.5 152.6 1903.3 155.7 1908.0 157.5 C1912.7 159.3 1922.6 163.2 1930.0 166.0 C1937.4 168.8 1947.3 172.7 1952.0 174.5 C1961.1 178.1 1964.8 179.5 2003.5 194.5 C2033.6 206.2 2039.1 208.3 2068.0 219.5 C2080.4 224.3 2094.3 229.7 2099.0 231.5 C2109.4 235.6 2120.6 240.0 2141.5 248.0 C2162.4 256.0 2173.6 260.4 2184.0 264.5 C2191.4 267.4 2203.0 271.9 2246.5 288.7 C2251.4 290.6 2259.3 293.7 2264.0 295.5 C2268.7 297.3 2279.7 301.6 2288.5 305.0 C2309.4 313.0 2320.6 317.4 2331.0 321.5 C2338.4 324.4 2350.0 328.9 2393.5 345.7 C2398.4 347.6 2406.3 350.7 2411.0 352.5 C2420.1 356.1 2450.0 367.7 2466.5 374.0 C2472.0 376.1 2481.9 379.9 2488.5 382.5 C2501.9 387.7 2513.7 392.3 2528.5 398.0 C2534.0 400.1 2549.1 406.0 2562.0 411.0 C2574.9 416.0 2588.9 421.5 2593.0 423.0 C2597.1 424.6 2605.9 428.0 2612.5 430.6 C2647.9 444.4 2656.1 447.5 2675.5 455.0 C2735.3 478.0 2737.2 478.9 2740.2 485.6 C2741.8 489.3 2741.9 490.7 2741.0 493.4 C2738.6 500.7 2734.9 502.8 2700.5 516.0 C2691.7 519.4 2680.7 523.7 2676.0 525.5 C2667.9 528.7 2659.8 531.8 2619.5 547.2 C2609.6 551.0 2598.8 555.2 2595.5 556.5 C2592.2 557.8 2583.4 561.2 2576.0 564.1 C2568.6 566.9 2557.6 571.1 2551.5 573.5 C2545.4 575.9 2533.8 580.4 2525.5 583.5 C2494.0 595.6 2474.2 603.3 2466.0 606.5 C2461.3 608.3 2450.8 612.4 2442.5 615.6 C2434.2 618.7 2417.2 625.3 2404.5 630.2 C2391.8 635.1 2373.8 642.0 2364.5 645.6 C2355.2 649.2 2343.7 653.6 2339.0 655.5 C2330.9 658.6 2323.6 661.4 2282.5 677.2 C2272.6 681.0 2261.8 685.2 2258.5 686.5 C2255.2 687.8 2245.3 691.7 2236.5 695.0 C2227.7 698.4 2216.7 702.7 2212.0 704.5 C2207.3 706.3 2196.8 710.4 2188.5 713.6 C2161.0 724.1 2137.6 733.1 2129.0 736.5 C2124.3 738.3 2113.8 742.4 2105.5 745.6 C2097.2 748.7 2080.2 755.3 2067.5 760.2 C2054.8 765.1 2036.8 772.0 2027.5 775.6 C2018.2 779.2 2006.5 783.7 2001.5 785.6 C1996.5 787.6 1988.7 790.6 1984.0 792.4 C1974.7 796.0 1971.3 797.3 1934.5 811.5 C1906.7 822.2 1887.8 829.5 1875.0 834.5 C1870.3 836.3 1859.8 840.4 1851.5 843.6 C1827.1 852.9 1801.1 862.9 1791.5 866.7 C1786.5 868.6 1778.7 871.6 1774.0 873.4 C1763.1 877.6 1747.0 883.9 1735.5 888.3 C1725.4 892.3 1697.5 903.0 1680.0 909.7 C1673.7 912.2 1664.0 915.9 1658.5 918.0 C1645.3 923.1 1626.3 930.4 1617.0 934.0 C1612.9 935.5 1598.9 941.0 1586.0 946.0 C1526.8 969.0 1518.6 972.0 1508.0 973.6 C1496.4 975.3 1479.4 975.3 1468.0 973.5 Z M1746.1 969.9 C1742.0 969.4 1735.9 968.3 1732.6 967.5 C1725.7 965.7 1696.1 954.5 1694.7 953.1 C1694.2 952.6 1695.4 951.7 1697.7 951.0 C1699.8 950.3 1704.7 948.5 1708.5 946.9 C1714.9 944.3 1722.6 941.4 1766.5 924.6 C1774.8 921.4 1785.3 917.3 1790.0 915.5 C1794.7 913.7 1805.7 909.4 1814.5 906.0 C1823.3 902.6 1834.3 898.3 1839.0 896.5 C1847.1 893.3 1855.2 890.2 1895.5 874.8 C1905.4 871.0 1916.2 866.8 1919.5 865.5 C1922.8 864.2 1932.7 860.3 1941.5 857.0 C1950.3 853.6 1961.5 849.3 1966.5 847.3 C1981.8 841.4 1991.3 837.7 2033.5 821.5 C2047.2 816.2 2063.2 810.0 2069.0 807.8 C2074.8 805.5 2083.3 802.2 2088.0 800.4 C2092.7 798.6 2100.6 795.6 2105.5 793.7 C2114.5 790.2 2137.2 781.4 2165.5 770.5 C2173.8 767.4 2185.4 762.9 2191.5 760.5 C2197.6 758.1 2208.6 753.9 2216.0 751.1 C2223.4 748.2 2232.2 744.8 2235.5 743.5 C2238.8 742.2 2249.6 738.0 2259.5 734.2 C2299.8 718.8 2307.9 715.7 2316.0 712.5 C2320.7 710.7 2331.7 706.4 2340.5 703.0 C2349.3 699.6 2360.3 695.3 2365.0 693.5 C2374.0 690.0 2391.9 683.1 2421.5 671.8 C2431.4 668.0 2442.2 663.9 2445.5 662.5 C2448.8 661.2 2458.7 657.4 2467.5 654.0 C2476.3 650.6 2487.3 646.3 2492.0 644.5 C2496.7 642.7 2507.2 638.6 2515.5 635.4 C2540.4 625.9 2566.0 616.1 2575.5 612.3 C2594.5 605.0 2604.9 600.9 2616.5 596.5 C2623.1 593.9 2632.3 590.4 2637.0 588.6 C2646.7 584.8 2651.9 582.8 2686.5 569.5 C2700.2 564.2 2716.2 558.0 2722.0 555.8 C2727.8 553.5 2736.3 550.2 2741.0 548.4 C2745.7 546.6 2753.6 543.6 2758.5 541.6 C2763.4 539.7 2775.4 535.1 2785.0 531.4 C2794.6 527.7 2807.7 522.7 2814.0 520.2 C2820.3 517.8 2829.4 514.3 2834.1 512.6 C2844.2 508.7 2849.4 505.1 2852.1 499.9 C2854.5 495.1 2854.5 487.8 2852.1 482.5 C2848.8 475.3 2847.3 474.5 2796.5 455.0 C2780.2 448.8 2750.1 437.1 2741.0 433.5 C2736.3 431.7 2728.4 428.6 2723.5 426.7 C2680.0 409.9 2668.4 405.4 2661.0 402.5 C2650.6 398.4 2639.4 394.0 2618.5 386.0 C2597.6 378.0 2586.4 373.6 2576.0 369.5 C2571.3 367.7 2557.4 362.3 2545.0 357.5 C2532.6 352.7 2518.7 347.3 2514.0 345.5 C2509.3 343.7 2495.4 338.3 2483.0 333.5 C2470.6 328.7 2456.7 323.3 2452.0 321.5 C2441.6 317.4 2430.4 313.0 2409.5 305.0 C2400.7 301.6 2389.7 297.3 2385.0 295.5 C2380.3 293.7 2372.4 290.6 2367.5 288.7 C2324.0 271.9 2312.4 267.4 2305.0 264.5 C2294.6 260.4 2283.4 256.0 2262.5 248.0 C2241.2 239.8 2230.2 235.5 2220.0 231.5 C2215.3 229.7 2205.4 225.8 2198.0 223.0 C2190.6 220.2 2180.7 216.3 2176.0 214.5 C2166.1 210.6 2156.0 206.7 2132.0 197.4 C2122.4 193.7 2110.0 188.9 2104.5 186.8 C2099.0 184.6 2090.0 181.1 2084.5 179.0 C2079.0 176.9 2069.1 173.1 2062.5 170.5 C2055.9 167.9 2046.7 164.3 2042.0 162.5 C2037.3 160.7 2028.3 157.2 2022.0 154.8 C2015.7 152.3 2002.6 147.3 1993.0 143.6 C1968.9 134.3 1958.9 130.4 1949.0 126.5 C1944.3 124.6 1929.2 118.8 1915.5 113.5 C1885.3 101.8 1875.1 97.9 1864.0 93.5 C1859.3 91.7 1849.4 87.9 1842.0 85.0 C1834.6 82.2 1824.7 78.4 1820.0 76.5 C1811.0 73.0 1801.8 69.4 1780.0 61.0 C1759.5 53.1 1749.3 49.2 1740.0 45.5 C1735.3 43.7 1726.1 40.1 1719.5 37.5 C1687.7 25.3 1683.4 23.6 1682.7 23.0 C1681.8 22.2 1711.2 10.7 1719.5 8.6 C1739.2 3.6 1771.7 5.2 1787.8 12.0 C1790.4 13.0 1804.9 18.7 1820.0 24.5 C1855.8 38.3 1864.2 41.6 1871.5 44.5 C1874.8 45.8 1884.7 49.6 1893.5 53.0 C1912.1 60.2 1924.1 64.8 1936.0 69.5 C1940.7 71.3 1954.6 76.7 1967.0 81.5 C1979.4 86.3 1993.3 91.7 1998.0 93.5 C2002.7 95.3 2016.6 100.7 2029.0 105.5 C2041.4 110.3 2055.3 115.7 2060.0 117.5 C2070.4 121.6 2081.6 126.0 2102.5 134.0 C2123.4 142.0 2134.6 146.4 2145.0 150.5 C2152.4 153.4 2164.0 157.9 2207.5 174.7 C2212.4 176.6 2220.3 179.7 2225.0 181.5 C2229.7 183.3 2240.7 187.6 2249.5 191.0 C2270.8 199.2 2281.8 203.5 2292.0 207.5 C2296.7 209.3 2306.6 213.2 2314.0 216.0 C2321.4 218.8 2331.3 222.7 2336.0 224.5 C2340.7 226.3 2348.6 229.4 2353.5 231.3 C2397.0 248.1 2408.6 252.6 2416.0 255.5 C2426.4 259.6 2437.6 264.0 2458.5 272.0 C2479.8 280.2 2490.8 284.5 2501.0 288.5 C2505.7 290.3 2515.6 294.2 2523.0 297.0 C2530.4 299.8 2540.3 303.7 2545.0 305.5 C2554.1 309.1 2563.3 312.7 2585.0 321.0 C2600.2 326.9 2611.5 331.2 2627.5 337.5 C2633.6 339.9 2645.2 344.4 2653.5 347.6 C2661.8 350.8 2673.0 355.1 2678.5 357.3 C2684.0 359.4 2693.0 362.9 2698.5 365.0 C2704.0 367.1 2719.1 373.0 2732.0 378.0 C2744.9 383.0 2758.9 388.4 2763.0 390.0 C2767.1 391.6 2781.1 397.0 2794.0 402.0 C2806.9 407.0 2822.0 412.9 2827.5 415.0 C2833.0 417.1 2842.9 420.9 2849.5 423.5 C2862.9 428.7 2874.7 433.3 2889.5 439.0 C2895.0 441.1 2910.1 447.0 2923.0 452.0 C2935.9 457.0 2949.9 462.5 2954.0 464.0 C2977.6 473.0 2987.2 477.0 2991.4 479.4 C3004.5 487.1 3002.2 499.9 2986.5 506.5 C2984.3 507.4 2973.3 511.7 2962.0 516.0 C2914.0 534.5 2904.1 538.3 2896.0 541.5 C2891.3 543.3 2880.8 547.4 2872.5 550.6 C2864.2 553.7 2847.2 560.3 2834.5 565.2 C2821.8 570.1 2803.8 577.0 2794.5 580.6 C2785.2 584.2 2773.4 588.7 2768.5 590.6 C2759.5 594.1 2749.8 597.9 2734.5 603.8 C2730.1 605.5 2714.1 611.7 2699.0 617.5 C2683.9 623.3 2667.9 629.5 2663.5 631.2 C2649.1 636.7 2638.7 640.8 2629.5 644.3 C2615.1 649.9 2563.4 669.9 2552.5 674.0 C2531.1 682.2 2505.2 692.2 2499.5 694.5 C2496.2 695.8 2485.8 699.8 2476.5 703.4 C2467.2 707.0 2448.9 714.0 2436.0 719.0 C2423.1 724.0 2404.8 731.0 2395.5 734.6 C2386.2 738.2 2374.7 742.6 2370.0 744.5 C2365.3 746.3 2354.8 750.4 2346.5 753.6 C2338.2 756.7 2323.4 762.4 2313.5 766.2 C2303.6 770.0 2291.7 774.6 2287.0 776.5 C2282.3 778.3 2272.4 782.2 2265.0 785.0 C2257.6 787.8 2247.7 791.7 2243.0 793.5 C2234.9 796.7 2227.2 799.6 2186.5 815.2 C2176.6 819.0 2165.8 823.2 2162.5 824.5 C2159.2 825.8 2149.3 829.7 2140.5 833.0 C2131.7 836.4 2120.4 840.7 2115.5 842.7 C2100.2 848.6 2090.7 852.3 2048.5 868.5 C2034.8 873.8 2018.8 880.0 2013.0 882.2 C2007.2 884.5 1998.7 887.8 1994.0 889.6 C1989.3 891.4 1981.5 894.4 1976.5 896.3 C1967.5 899.8 1944.8 908.6 1916.5 919.5 C1908.2 922.6 1896.5 927.1 1890.5 929.5 C1884.5 931.9 1873.4 936.1 1866.0 938.9 C1858.6 941.8 1849.8 945.2 1846.5 946.5 C1843.2 947.8 1834.4 951.2 1827.0 954.0 C1819.6 956.9 1809.5 960.8 1804.5 962.7 C1799.5 964.7 1791.5 967.1 1786.5 968.1 C1775.7 970.3 1756.3 971.2 1746.1 969.9 Z M1223.5 968.4 C1215.1 967.2 1204.7 964.4 1197.5 961.6 C1188.3 957.9 1178.5 954.1 1161.5 947.5 C1149.8 943.0 1141.1 939.6 1123.2 932.6 C1118.4 930.7 1102.1 924.3 1087.0 918.5 C1071.9 912.6 1054.3 905.8 1048.0 903.3 C1031.5 896.9 1020.3 892.5 1010.2 888.6 C1005.4 886.7 997.2 883.5 992.0 881.5 C986.8 879.5 978.7 876.3 974.0 874.5 C969.3 872.7 960.1 869.1 953.5 866.5 C946.9 863.9 937.7 860.3 933.0 858.5 C928.3 856.7 908.1 848.8 888.0 841.0 C867.9 833.2 847.7 825.3 843.0 823.5 C838.3 821.7 830.2 818.5 825.0 816.5 C819.8 814.5 811.7 811.3 807.0 809.5 C802.3 807.7 793.1 804.1 786.5 801.5 C779.9 798.9 770.7 795.3 766.0 793.5 C761.3 791.7 741.1 783.8 721.0 776.0 C700.9 768.2 679.3 759.8 673.0 757.3 C666.7 754.9 657.5 751.3 652.5 749.3 C647.5 747.4 639.7 744.3 635.0 742.5 C630.3 740.7 622.2 737.5 617.0 735.5 C611.8 733.5 603.7 730.3 599.0 728.5 C594.3 726.7 574.1 718.8 554.0 711.0 C533.9 703.2 513.7 695.3 509.0 693.5 C504.3 691.7 495.1 688.1 488.5 685.5 C481.9 682.9 472.7 679.3 468.0 677.5 C463.3 675.7 455.2 672.5 450.0 670.5 C444.8 668.5 436.7 665.3 432.0 663.5 C427.3 661.7 401.9 651.8 375.5 641.5 C349.1 631.2 323.6 621.3 318.8 619.4 C296.1 610.6 291.9 608.9 283.0 605.5 C277.8 603.5 269.7 600.3 265.0 598.5 C260.3 596.7 251.1 593.1 244.5 590.5 C237.9 587.9 228.7 584.3 224.0 582.5 C219.3 580.7 203.1 574.4 188.0 568.5 C172.9 562.6 156.7 556.4 152.0 554.5 C143.3 551.1 126.5 544.5 110.5 538.3 C105.5 536.4 97.7 533.3 93.0 531.5 C88.3 529.7 80.2 526.5 75.0 524.5 C69.8 522.5 60.5 518.9 54.5 516.5 C7.7 498.3 8.8 498.8 4.3 494.5 C1.0 491.3 0.0 489.6 0.0 487.1 C0.0 479.0 4.9 475.5 29.0 466.2 C85.9 444.3 93.4 441.4 111.0 434.5 C115.7 432.7 125.6 428.9 133.0 426.0 C140.4 423.2 149.2 419.8 152.5 418.5 C155.8 417.2 165.7 413.3 174.5 410.0 C197.7 401.1 207.7 397.2 214.5 394.5 C217.8 393.2 227.7 389.4 236.5 386.0 C245.3 382.6 256.3 378.3 261.0 376.5 C265.7 374.7 276.0 370.7 284.0 367.6 C292.0 364.6 309.1 358.0 322.0 353.0 C334.9 347.9 348.9 342.5 353.0 341.0 C357.1 339.4 371.1 334.0 384.0 329.0 C396.9 324.0 415.1 317.0 424.5 313.4 C433.9 309.8 445.6 305.3 450.5 303.3 C462.0 298.9 478.1 292.6 489.0 288.4 C493.7 286.6 501.6 283.6 506.5 281.7 C511.4 279.7 522.7 275.4 531.5 272.0 C540.3 268.6 551.5 264.3 556.5 262.3 C568.8 257.6 580.9 252.9 590.5 249.2 C594.9 247.5 603.7 244.1 610.0 241.7 C625.1 235.7 656.5 223.6 666.0 220.0 C670.1 218.5 684.1 213.1 697.0 208.0 C709.9 203.0 727.0 196.4 735.0 193.3 C743.0 190.3 754.5 185.9 760.5 183.5 C766.5 181.1 777.6 176.9 785.0 174.0 C792.4 171.2 802.5 167.3 807.5 165.3 C820.9 160.1 836.4 154.1 846.0 150.4 C850.7 148.6 858.5 145.6 863.5 143.7 C868.5 141.7 879.7 137.4 888.5 134.0 C897.3 130.6 907.2 126.8 910.5 125.5 C913.8 124.2 922.6 120.8 930.0 117.9 C946.1 111.8 958.5 107.0 970.0 102.5 C974.7 100.7 986.1 96.2 995.5 92.6 C1004.9 89.0 1023.1 82.0 1036.0 77.0 C1048.9 72.0 1067.2 65.0 1076.5 61.4 C1094.3 54.5 1105.8 50.1 1120.0 44.5 C1124.7 42.7 1134.6 38.9 1142.0 36.0 C1149.4 33.2 1158.2 29.8 1161.5 28.5 C1175.2 23.0 1199.0 14.0 1206.0 11.6 C1216.3 8.2 1231.7 6.6 1247.5 7.3 C1266.7 8.1 1270.5 9.1 1302.0 21.5 C1306.7 23.3 1314.8 26.5 1320.0 28.5 C1325.2 30.5 1333.3 33.7 1338.0 35.5 C1342.7 37.3 1351.9 40.9 1358.5 43.5 C1365.1 46.1 1374.3 49.7 1379.0 51.5 C1383.7 53.3 1394.7 57.6 1403.5 61.0 C1418.4 66.8 1429.4 71.0 1451.5 79.7 C1474.4 88.6 1478.1 90.1 1487.0 93.5 C1492.2 95.5 1500.4 98.7 1505.2 100.6 C1538.9 113.7 1551.9 118.8 1591.0 134.0 C1611.1 141.8 1631.3 149.7 1636.0 151.5 C1640.7 153.3 1648.8 156.5 1654.0 158.5 C1659.2 160.5 1667.3 163.7 1672.0 165.5 C1676.7 167.3 1685.9 170.9 1692.5 173.5 C1699.1 176.1 1708.3 179.7 1713.0 181.5 C1717.7 183.3 1737.9 191.2 1758.0 199.0 C1778.1 206.8 1799.7 215.2 1806.0 217.7 C1812.3 220.1 1821.5 223.7 1826.5 225.7 C1831.5 227.6 1839.3 230.7 1844.0 232.5 C1848.7 234.3 1856.8 237.5 1862.0 239.5 C1867.2 241.5 1875.3 244.7 1880.0 246.5 C1884.7 248.3 1904.9 256.2 1925.0 264.0 C1945.1 271.8 1966.7 280.2 1973.0 282.7 C1979.3 285.1 1988.5 288.7 1993.5 290.7 C1998.5 292.6 2006.3 295.7 2011.0 297.5 C2015.7 299.3 2023.8 302.5 2029.0 304.5 C2034.2 306.5 2042.3 309.7 2047.0 311.5 C2051.7 313.3 2071.9 321.2 2092.0 329.0 C2126.7 342.5 2140.0 347.7 2160.5 355.7 C2183.4 364.6 2187.1 366.1 2196.0 369.5 C2201.2 371.5 2209.3 374.7 2214.0 376.5 C2218.7 378.3 2238.9 386.2 2259.0 394.0 C2293.0 407.2 2304.9 411.9 2327.2 420.6 C2332.1 422.5 2340.2 425.6 2345.2 427.6 C2350.3 429.6 2358.3 432.7 2363.0 434.5 C2367.7 436.4 2375.6 439.4 2380.5 441.3 C2385.4 443.2 2393.6 446.4 2398.5 448.3 C2403.4 450.3 2420.9 457.1 2437.3 463.4 C2471.6 476.8 2475.7 478.7 2479.5 483.2 C2481.8 485.9 2482.1 487.1 2481.7 490.8 C2480.9 498.4 2477.8 500.6 2456.0 509.0 C2434.1 517.4 2424.9 521.0 2418.5 523.5 C2415.2 524.8 2405.3 528.6 2396.5 532.0 C2387.7 535.4 2377.8 539.2 2374.5 540.5 C2371.2 541.8 2362.4 545.2 2355.0 548.0 C2347.6 550.9 2337.7 554.7 2333.0 556.5 C2320.4 561.4 2308.2 566.2 2293.0 572.0 C2285.6 574.9 2274.6 579.1 2268.5 581.5 C2262.4 583.9 2250.8 588.4 2242.5 591.6 C2216.6 601.5 2206.1 605.6 2184.5 613.9 C2172.9 618.4 2157.0 624.6 2149.0 627.6 C2141.0 630.7 2130.7 634.7 2126.0 636.5 C2118.4 639.5 2104.3 644.9 2076.5 655.6 C2071.6 657.5 2064.8 660.2 2061.5 661.5 C2058.2 662.8 2048.3 666.6 2039.5 670.0 C2030.7 673.3 2020.8 677.2 2017.5 678.5 C2010.9 681.2 1978.8 693.5 1967.0 698.0 C1962.9 699.6 1948.9 705.0 1936.0 710.0 C1923.1 715.0 1903.3 722.7 1892.0 727.0 C1880.7 731.4 1863.2 738.1 1853.0 742.0 C1842.8 746.0 1829.3 751.2 1823.0 753.7 C1816.7 756.1 1807.9 759.5 1803.5 761.2 C1793.9 764.9 1781.8 769.6 1769.5 774.3 C1764.5 776.3 1753.3 780.6 1744.5 784.0 C1735.7 787.4 1724.5 791.7 1719.5 793.7 C1714.5 795.6 1706.7 798.6 1702.0 800.4 C1691.1 804.6 1675.0 810.9 1663.5 815.3 C1658.5 817.3 1646.8 821.8 1637.5 825.4 C1628.2 829.0 1609.9 836.0 1597.0 841.0 C1584.1 846.0 1570.1 851.4 1566.0 853.0 C1561.9 854.5 1547.9 859.9 1535.0 865.0 C1522.1 870.0 1503.8 877.0 1494.5 880.6 C1485.2 884.2 1474.8 888.2 1471.5 889.5 C1468.2 890.8 1458.3 894.7 1449.5 898.0 C1426.3 906.9 1416.3 910.8 1409.5 913.5 C1406.2 914.8 1396.3 918.6 1387.5 922.0 C1378.7 925.4 1368.8 929.2 1365.5 930.5 C1360.2 932.7 1346.4 938.0 1312.5 951.0 C1307.0 953.1 1297.1 957.0 1290.5 959.5 C1271.1 967.2 1266.1 968.1 1245.0 968.5 C1234.8 968.7 1225.2 968.6 1223.5 968.4 Z M1809.5 625.4 C1827.7 622.2 1846.9 613.1 1859.7 601.5 C1886.1 577.6 1893.8 532.9 1877.1 500.2 C1873.7 493.6 1863.4 483.4 1854.2 477.7 C1841.3 469.5 1830.9 465.5 1796.1 455.3 C1785.6 452.3 1777.4 448.2 1773.5 444.1 C1771.0 441.4 1770.5 440.0 1770.2 434.7 C1770.0 429.8 1770.3 427.8 1771.9 425.4 C1776.7 417.7 1786.0 414.0 1800.5 414.0 C1805.5 414.0 1812.2 414.7 1815.5 415.5 C1823.2 417.5 1831.9 422.9 1837.0 428.8 L1841.1 433.5 L1844.2 430.0 C1845.9 428.1 1851.6 421.8 1856.9 416.0 C1862.2 410.2 1871.5 400.1 1877.5 393.6 L1888.4 381.7 L1884.0 377.8 C1877.3 372.0 1865.7 364.4 1857.7 360.6 C1840.2 352.3 1811.2 347.8 1789.2 349.9 C1749.5 353.8 1718.1 374.1 1705.3 404.3 C1700.8 414.9 1699.0 424.6 1699.0 437.8 C1699.0 457.7 1704.0 471.3 1715.6 483.8 C1728.2 497.5 1740.9 504.0 1780.5 517.0 C1805.2 525.1 1811.1 528.4 1815.1 536.2 C1820.5 546.7 1813.9 557.4 1799.5 561.6 C1791.9 563.7 1779.5 563.7 1771.0 561.6 C1759.5 558.6 1745.2 548.9 1740.0 540.5 C1738.8 538.6 1737.5 537.0 1737.0 537.0 C1736.5 537.0 1726.8 547.2 1715.4 559.8 C1704.0 572.3 1693.1 584.2 1691.2 586.2 L1687.6 590.0 L1690.1 592.6 C1694.6 597.4 1710.4 608.8 1719.0 613.3 C1732.2 620.3 1750.5 625.4 1769.5 627.4 C1776.9 628.2 1800.4 627.0 1809.5 625.4 Z M752.8 626.0 C783.5 622.6 812.5 607.2 830.6 584.6 C834.1 580.2 837.0 576.2 837.0 575.8 C837.0 575.2 795.3 543.7 783.4 535.3 L780.4 533.1 L778.5 536.3 C775.2 542.0 765.7 551.1 759.0 555.0 C750.3 560.2 741.9 562.2 729.5 562.1 C718.5 562.1 710.4 560.4 702.4 556.4 C668.1 539.2 654.5 488.8 673.6 449.5 C681.5 433.2 695.7 420.8 712.7 415.4 C715.3 414.6 722.5 413.6 728.5 413.3 C747.2 412.4 759.3 416.7 772.2 428.8 L778.9 435.2 L781.7 433.2 C783.2 432.1 790.0 426.8 796.6 421.3 C803.3 415.9 813.4 407.7 819.1 403.1 C824.8 398.5 829.9 394.3 830.4 393.9 C831.6 392.8 828.8 388.8 822.1 381.7 C807.4 366.3 785.6 355.1 761.1 350.4 C749.7 348.2 723.1 348.2 709.9 350.4 C688.2 353.9 664.6 363.4 648.0 375.1 C624.7 391.5 607.0 418.2 599.2 448.5 C594.9 465.1 593.6 476.8 594.3 494.0 C596.3 546.2 621.8 588.3 665.0 610.4 C675.2 615.6 692.7 621.7 704.1 624.0 C718.5 626.8 737.5 627.6 752.8 626.0 Z M1034.5 624.2 C1064.5 617.7 1087.1 605.9 1106.1 587.0 C1116.6 576.6 1123.8 566.3 1130.5 552.5 C1136.0 541.1 1138.2 534.5 1141.6 519.0 C1144.0 507.9 1144.3 504.5 1144.3 488.0 C1144.4 468.7 1143.1 459.4 1137.9 441.5 C1135.4 433.1 1126.7 414.9 1120.9 406.0 C1114.5 396.3 1097.1 379.3 1086.5 372.5 C1069.3 361.4 1044.9 352.5 1025.0 350.0 C1012.7 348.5 987.1 348.8 975.6 350.5 C955.7 353.5 934.6 361.3 918.3 371.7 C888.6 390.6 868.1 421.8 861.4 458.5 C858.9 472.2 858.9 503.5 861.4 517.0 C867.0 547.3 883.3 576.4 904.7 594.1 C924.1 610.2 950.8 621.8 976.7 625.5 C990.7 627.5 1022.4 626.8 1034.5 624.2 Z M1364.0 589.0 L1364.0 557.0 L1312.5 557.0 L1261.0 557.0 L1260.8 456.2 L1260.5 355.5 L1226.2 355.2 L1192.0 355.0 L1192.0 488.0 L1192.0 621.0 L1278.0 621.0 L1364.0 621.0 L1364.0 589.0 Z M1469.0 607.8 C1471.9 600.5 1475.7 590.7 1477.5 586.0 C1479.3 581.3 1482.5 573.2 1484.5 568.0 C1489.3 555.6 1496.3 537.7 1500.5 527.0 C1503.8 518.6 1506.6 511.4 1515.3 489.0 C1517.8 482.7 1521.7 472.6 1524.0 466.5 C1526.4 460.4 1528.6 455.1 1529.0 454.7 C1529.4 454.3 1533.4 463.3 1537.9 474.7 C1542.4 486.1 1547.0 497.5 1548.0 500.0 C1551.7 508.7 1561.0 532.5 1561.0 533.2 C1561.0 533.7 1553.2 534.0 1543.6 534.0 C1533.1 534.0 1525.9 534.4 1525.5 535.0 C1525.2 535.5 1522.9 541.3 1520.4 547.7 C1517.9 554.2 1514.0 564.2 1511.8 570.0 C1509.6 575.8 1506.7 583.3 1505.4 586.8 L1503.0 593.0 L1543.9 593.0 L1584.9 593.0 L1587.2 598.2 C1588.6 601.1 1591.2 607.4 1593.1 612.2 L1596.5 621.0 L1634.9 621.0 C1670.9 621.0 1673.2 620.9 1672.7 619.2 C1672.4 618.3 1668.0 608.0 1663.0 596.5 C1648.7 563.9 1647.1 560.1 1643.0 550.5 C1640.9 545.5 1637.3 537.2 1635.0 532.0 C1632.7 526.8 1628.9 518.0 1626.5 512.5 C1624.1 507.0 1620.3 498.2 1618.0 493.0 C1615.7 487.8 1610.5 475.9 1606.5 466.5 C1602.5 457.1 1596.6 443.6 1593.5 436.5 C1590.4 429.4 1586.5 420.6 1585.0 417.0 C1583.5 413.4 1580.3 406.2 1578.0 401.0 C1575.7 395.8 1571.9 387.0 1569.5 381.5 C1567.2 376.0 1563.8 368.0 1561.9 363.8 L1558.6 356.0 L1531.0 356.0 L1503.4 356.0 L1502.3 358.8 C1500.2 363.8 1492.2 382.4 1488.0 392.0 C1485.7 397.2 1481.9 406.0 1479.5 411.5 C1477.1 417.0 1473.3 425.8 1471.0 431.0 C1468.7 436.2 1465.1 444.6 1463.0 449.5 C1460.9 454.4 1457.3 462.8 1455.0 468.0 C1452.7 473.2 1447.4 485.4 1443.3 495.0 C1431.5 522.2 1426.5 533.7 1422.0 544.0 C1419.7 549.2 1416.1 557.5 1414.0 562.5 C1411.9 567.5 1408.6 575.1 1406.7 579.5 C1398.0 599.3 1389.0 620.3 1389.0 620.6 C1389.0 620.8 1405.8 621.0 1426.4 621.0 L1463.8 621.0 L1469.0 607.8 Z M988.5 562.0 C972.3 559.4 962.0 554.1 950.5 542.6 C944.2 536.3 941.5 532.7 938.3 526.0 C926.8 502.4 926.8 473.8 938.3 450.0 C943.9 438.3 955.1 427.0 966.6 421.2 C979.1 414.9 985.2 413.6 1001.5 413.6 C1018.0 413.6 1024.4 414.9 1036.9 421.2 C1055.7 430.6 1068.5 448.9 1072.6 472.1 C1074.5 482.8 1074.0 499.4 1071.6 509.5 C1065.6 534.3 1046.8 554.0 1023.3 560.1 C1014.3 562.4 997.2 563.3 988.5 562.0 Z" fill="#FFED00" fill-rule="evenodd"/></svg></svg>